<svg width="22" height="24" viewBox="0 0 22 24" fill="none" xmlns="http://www.w3.org/2000/svg">
<path d="M21.0605 15.2119L16.2676 9.78619C16.1565 9.66038 15.9964 9.58819 15.8285 9.58819C15.6606 9.58819 15.5005 9.66033 15.3894 9.78619L14.2881 11.0329V6.59747H15.7671C16.0006 6.59747 16.2053 6.46523 16.3013 6.25238C16.3973 6.03952 16.3608 5.79858 16.2062 5.62359L11.4133 0.198047C11.3022 0.0721875 11.1421 0 10.9742 0C10.9742 0 10.9742 0 10.9742 0C10.8062 0 10.6462 0.0721406 10.535 0.198L9.43478 1.44352C9.30648 1.58873 9.32026 1.81045 9.46544 1.93875C9.61061 2.067 9.83237 2.05327 9.96067 1.90805L10.9742 0.760734L15.5104 5.89584H13.9372C13.7434 5.89584 13.5864 6.05292 13.5864 6.24666V11.8272L10.5965 15.2118C10.4419 15.3868 10.4055 15.6278 10.5015 15.8406C10.5974 16.0535 10.8022 16.1857 11.0357 16.1857H12.5147V23.2983H9.48583V9.18103H10.9648C11.1984 9.18103 11.4031 9.0488 11.499 8.83594C11.595 8.62308 11.5586 8.38214 11.404 8.20716L7.90009 4.24064L8.88259 3.12844C9.01089 2.98322 8.99711 2.7615 8.85194 2.6332C8.70667 2.50491 8.48495 2.51864 8.3567 2.66386L7.43195 3.71067L6.61108 2.78142C6.49994 2.65561 6.33986 2.58342 6.172 2.58342C6.00405 2.58342 5.84401 2.65561 5.73287 2.78142H5.73283L0.939904 8.20716C0.78531 8.38214 0.748888 8.62308 0.844888 8.83594C0.940841 9.0488 1.14554 9.18103 1.37903 9.18103H2.85803V23.6492C2.85803 23.843 3.01511 24 3.20889 24H18.7915C18.9853 24 19.1424 23.843 19.1424 23.6492V20.7347C19.1424 20.5409 18.9853 20.3839 18.7915 20.3839C18.5978 20.3839 18.4407 20.541 18.4407 20.7347V23.2983H13.2163V15.8349C13.2163 15.6411 13.0592 15.484 12.8655 15.484H11.2922L15.8285 10.3489L20.3647 15.484H18.7915C18.5977 15.484 18.4407 15.6411 18.4407 15.8349V19.1157C18.4407 19.3095 18.5977 19.4665 18.7915 19.4665C18.9853 19.4665 19.1424 19.3095 19.1424 19.1157V16.1857H20.6214C20.8548 16.1857 21.0595 16.0535 21.1555 15.8407C21.2515 15.6277 21.2151 15.3868 21.0605 15.2119ZM8.78411 8.83017V23.2983H3.55975V8.83017C3.55975 8.63639 3.40272 8.47931 3.20894 8.47931H1.63572L6.17195 3.3442L10.7081 8.47931H9.13492C8.94119 8.47936 8.78411 8.63644 8.78411 8.83017Z" fill="#08B675"/>
</svg>
