<svg width="24" height="24" viewBox="0 0 24 24" fill="none" xmlns="http://www.w3.org/2000/svg">
<path d="M12.0205 1H10.6455V2.375H12.0205V1Z" fill="#939393"/>
<path d="M9.27051 1H7.89551V2.375H9.27051V1Z" fill="#939393"/>
<path d="M19.5625 1H13.3949V2.375H19.5625C20.7016 2.375 21.625 3.2984 21.625 4.4375V19.5625C21.625 20.7016 20.7016 21.625 19.5625 21.625H4.4375C3.2984 21.625 2.375 20.7016 2.375 19.5625V4.4375C2.375 3.2984 3.2984 2.375 4.4375 2.375H6.51994V1H4.4375C2.53996 1.00228 1.00228 2.53996 1 4.4375V19.5625C1.00228 21.46 2.53996 22.9977 4.4375 23H19.5625C21.46 22.9977 22.9977 21.46 23 19.5625V4.4375C22.9977 2.53996 21.46 1.00228 19.5625 1Z" fill="#939393"/>
<path d="M5.6108 12.8889L4.63867 13.861L8.56223 17.7846L19.3608 6.98604L18.3887 6.01392L8.56223 15.8404L5.6108 12.8889Z" fill="#939393"/>
</svg>
