<svg width="24" height="24" viewBox="0 0 24 24" fill="none" xmlns="http://www.w3.org/2000/svg">
<path d="M24 12C24 5.38335 18.6166 0 12 0C9.92555 0 7.90452 0.53729 6.11265 1.54839H4.64516V0H2.32258V4.9111C0.805161 6.97819 0 9.42464 0 12C0 18.617 5.38335 24 12 24C13.4745 24 14.9137 23.7348 16.2782 23.2138C17.057 23.7089 17.9783 24 18.9677 24C20.1747 24 21.3422 23.5661 22.255 22.7783L21.749 22.1923C20.9768 22.8588 19.9893 23.2258 18.9677 23.2258C16.62 23.2258 14.7097 21.3155 14.7097 18.9677C14.7097 16.62 16.62 14.7097 18.9677 14.7097C21.3155 14.7097 23.2258 16.62 23.2258 18.9677C23.2258 19.949 22.9014 20.8715 22.2871 21.6352L22.8906 22.1206C23.6059 21.2307 24 20.1112 24 18.9677C24 17.9775 23.7085 17.0563 23.213 16.277C23.7337 14.9121 24 13.4745 24 12ZM6.19355 3.87097H6.96774V4.64516V9.29032H6.19355V3.87097ZM4.64516 2.32258H5.41935V3.09677V9.29032H4.64516V2.32258ZM3.09677 0.774194H3.87097V1.54839V9.29032H3.09677V0.774194ZM11.6129 23.2161C5.73058 23.0152 0.984774 18.2694 0.783871 12.3871H11.6129V23.2161ZM11.6129 11.6129H0.789677C0.852774 9.72852 1.37613 7.92774 2.32258 6.32245V10.0645H3.87097H4.64516H5.41935H6.19355H6.96774H7.74194H8.51613H9.29032H10.8387V6.19355H9.29032V4.64516H7.74194V3.09677H6.19355V2.3969C7.83135 1.40439 9.69252 0.853548 11.6129 0.787742V11.6129ZM7.74194 9.29032V5.41935H8.51613V6.19355V9.29032H7.74194ZM9.29032 9.29032V6.96774H10.0645V9.29032H9.29032ZM23.2161 11.6129H19.9022L22.7489 8.76619C23.0222 9.67239 23.1825 10.6266 23.2161 11.6129ZM21.2655 5.67097L16.9421 9.99445L17.4894 10.5418L21.6894 6.34181C21.9898 6.85432 22.2503 7.39239 22.4679 7.95252L18.8075 11.6129H16.4183L16.9188 11.1124L16.3715 10.565L15.3236 11.6129H12.9345L20.2014 4.34594C20.5877 4.76013 20.9443 5.20219 21.2655 5.67097ZM12.3871 0.783871C13.3734 0.817548 14.3276 0.977806 15.2338 1.2511L12.3871 4.09781V0.783871ZM12.3871 8.67639L17.0915 3.972L16.5441 3.42465L12.3871 7.58168V5.19252L16.0475 1.53213C16.6076 1.74929 17.1457 2.00981 17.6582 2.31058L17.0346 2.93419L17.5819 3.48155L18.329 2.73445C18.7978 3.05574 19.2399 3.41187 19.6541 3.79858L12.3871 11.0655V8.67639ZM18.9677 13.9355C16.193 13.9355 13.9355 16.193 13.9355 18.9677C13.9355 20.4236 14.5606 21.7328 15.552 22.6525C14.532 22.9928 13.471 23.1805 12.3871 23.2169V12.3871H23.2169C23.1805 13.4706 22.9912 14.5308 22.6514 15.5508C21.7316 14.5599 20.4228 13.9355 18.9677 13.9355Z" fill="#939393"/>
<path d="M9.40545 14.0488L4.76025 18.694L5.30769 19.2414L9.95288 14.5962L9.40545 14.0488Z" fill="#939393"/>
<path d="M8.90323 17.0322C8.26298 17.0322 7.74194 17.5533 7.74194 18.1935C7.74194 18.8338 8.26298 19.3548 8.90323 19.3548C9.54349 19.3548 10.0645 18.8338 10.0645 18.1935C10.0645 17.5533 9.54349 17.0322 8.90323 17.0322ZM8.90323 18.5806C8.68994 18.5806 8.51614 18.4072 8.51614 18.1935C8.51614 17.9798 8.68994 17.8064 8.90323 17.8064C9.11652 17.8064 9.29033 17.9798 9.29033 18.1935C9.29033 18.4072 9.11652 18.5806 8.90323 18.5806Z" fill="#939393"/>
<path d="M5.80655 13.9355C5.1663 13.9355 4.64526 14.4565 4.64526 15.0968C4.64526 15.737 5.1663 16.2581 5.80655 16.2581C6.44681 16.2581 6.96784 15.737 6.96784 15.0968C6.96784 14.4565 6.44681 13.9355 5.80655 13.9355ZM5.80655 15.4839C5.59326 15.4839 5.41946 15.3105 5.41946 15.0968C5.41946 14.8831 5.59326 14.7097 5.80655 14.7097C6.01984 14.7097 6.19365 14.8831 6.19365 15.0968C6.19365 15.3105 6.01984 15.4839 5.80655 15.4839Z" fill="#939393"/>
<path d="M18.9678 18.5807C18.5409 18.5807 18.1936 18.2334 18.1936 17.8065C18.1936 17.3795 18.5409 17.0323 18.9678 17.0323C19.3948 17.0323 19.742 17.3795 19.742 17.8065H20.5162C20.5162 17.0869 20.0207 16.4861 19.3549 16.313V15.4839H18.5807V16.313C17.9149 16.4861 17.4194 17.0869 17.4194 17.8065C17.4194 18.6604 18.1139 19.3549 18.9678 19.3549C19.3948 19.3549 19.742 19.7021 19.742 20.129C19.742 20.556 19.3948 20.9032 18.9678 20.9032C18.5409 20.9032 18.1936 20.556 18.1936 20.129H17.4194C17.4194 20.8487 17.9149 21.4494 18.5807 21.6225V22.4516H19.3549V21.6225C20.0207 21.4494 20.5162 20.8487 20.5162 20.129C20.5162 19.2751 19.8218 18.5807 18.9678 18.5807Z" fill="#939393"/>
<path d="M22.4517 18.5807H21.6775V19.3549H22.4517V18.5807Z" fill="#939393"/>
<path d="M16.2581 18.5807H15.4839V19.3549H16.2581V18.5807Z" fill="#939393"/>
</svg>
