<svg width="24" height="24" viewBox="0 0 24 24" fill="none" xmlns="http://www.w3.org/2000/svg">
<g clip-path="url(#clip0)">
<path d="M3.98785 21.3249C3.90071 21.2377 3.77978 21.1876 3.65649 21.1876C3.53321 21.1876 3.41228 21.2377 3.32509 21.3249C3.2379 21.4121 3.18774 21.533 3.18774 21.6563C3.18774 21.7796 3.23785 21.9005 3.32509 21.9877C3.41228 22.0749 3.53321 22.1251 3.65649 22.1251C3.77978 22.1251 3.90071 22.0749 3.98785 21.9877C4.07504 21.9005 4.12524 21.7796 4.12524 21.6563C4.12524 21.533 4.07509 21.4121 3.98785 21.3249Z" fill="#08B675"/>
<path d="M22.0089 8.57521C21.9217 8.48798 21.8012 8.43787 21.6775 8.43787C21.5542 8.43787 21.4333 8.48798 21.3461 8.57521C21.2589 8.6624 21.2087 8.78333 21.2087 8.90662C21.2087 9.0299 21.2589 9.15083 21.3461 9.23798C21.4333 9.32516 21.5542 9.37537 21.6775 9.37537C21.8012 9.37537 21.9217 9.32521 22.0089 9.23798C22.0965 9.15083 22.1467 9.0299 22.1467 8.90662C22.1467 8.78333 22.0965 8.6624 22.0089 8.57521Z" fill="#08B675"/>
<path d="M23.8623 0.137297C23.7744 0.0494062 23.6551 0 23.5308 0L11.9998 0.000609375C11.741 0.000609375 11.5311 0.210516 11.5311 0.469359V1.80984L7.08788 3.00042C6.83781 3.06745 6.6894 3.32447 6.75643 3.5745L9.05926 12.1687L7.06712 14.1608C6.81357 13.7906 6.38785 13.5471 5.90631 13.5471H1.40645C0.631041 13.5471 0.000244141 14.178 0.000244141 14.9533V22.5938C0.000244141 23.3692 0.631041 24 1.40645 24H5.90635C6.56509 24 7.11924 23.5446 7.27112 22.9322L7.82846 23.4182C8.25873 23.7934 8.80998 24 9.38087 24H23.5309C23.7897 24 23.9996 23.7901 23.9996 23.5313V0.46875C23.9995 0.344438 23.9502 0.225187 23.8623 0.137297ZM6.37501 22.5938C6.37501 22.8522 6.16473 23.0625 5.90626 23.0625H1.4064C1.14793 23.0625 0.93765 22.8523 0.93765 22.5938V14.9534C0.93765 14.6949 1.14793 14.4846 1.4064 14.4846H3.1876V19.8844C3.1876 20.1432 3.39751 20.3531 3.65635 20.3531C3.9152 20.3531 4.1251 20.1432 4.1251 19.8844V14.4846H5.90631C6.16477 14.4846 6.37506 14.6949 6.37506 14.9534V22.5938H6.37501ZM7.78327 3.78464L11.5311 2.78039V4.51734L11.217 4.60153C11.0968 4.63373 10.9945 4.71225 10.9323 4.81992C10.8702 4.92759 10.8533 5.05552 10.8855 5.17561C11.0656 5.84784 10.6653 6.54127 9.99306 6.72141C9.87282 6.75366 9.77031 6.83231 9.7082 6.94022C9.64609 7.04808 9.62935 7.17623 9.66184 7.29642L11.489 14.0623H10.5482L10.0634 12.1655C10.0479 12.1051 10.0209 12.0495 9.98481 12.0011L7.78327 3.78464ZM11.5311 6.66698V10.6223L10.6762 7.45664C11.0333 7.27223 11.3256 6.99633 11.5311 6.66698ZM18.2654 23.0625H9.38077C9.03648 23.0625 8.70399 22.9379 8.44449 22.7116L7.31251 21.7244V15.2413L9.35898 13.1948L9.73013 14.647C9.7832 14.8545 9.97009 14.9996 10.1843 14.9996L19.4001 15.0002C19.7619 15.0002 20.0563 15.2946 20.0563 15.6564C20.0563 16.0183 19.7619 16.3127 19.4001 16.3127H14.6779C14.419 16.3127 14.2091 16.5226 14.2091 16.7814C14.2091 17.0403 14.419 17.2502 14.6779 17.2502H20.8673C21.2291 17.2502 21.5235 17.5446 21.5235 17.9064C21.5235 18.2683 21.2291 18.5627 20.8673 18.5627H14.6779C14.419 18.5627 14.2091 18.7726 14.2091 19.0314C14.2091 19.2903 14.419 19.5002 14.6779 19.5002H19.8643C20.2262 19.5002 20.5205 19.7946 20.5205 20.1564C20.5205 20.5183 20.2262 20.8127 19.8643 20.8127H14.6779C14.419 20.8127 14.2091 21.0226 14.2091 21.2814C14.2091 21.5403 14.419 21.7502 14.6779 21.7502H18.2654C18.6272 21.7502 18.9216 22.0446 18.9216 22.4064C18.9216 22.7681 18.6272 23.0625 18.2654 23.0625ZM23.0621 23.0625H23.0621H19.7171C19.808 22.8622 19.8591 22.6402 19.8591 22.4062C19.8591 22.1723 19.808 21.9503 19.7171 21.75H19.8643C20.743 21.75 21.458 21.0351 21.458 20.1563C21.458 19.9 21.3968 19.6578 21.2888 19.443C21.9636 19.2577 22.4609 18.6391 22.4609 17.9063C22.4609 17.5508 22.3438 17.2222 22.1463 16.9569V11.016C22.1463 10.7571 21.9364 10.5472 21.6776 10.5472C21.4187 10.5472 21.2088 10.7571 21.2088 11.016V16.35C21.0987 16.3258 20.9844 16.3127 20.8672 16.3127H20.8518C20.9427 16.1124 20.9937 15.8903 20.9937 15.6564C20.9937 14.7776 20.2788 14.0627 19.4 14.0627H18.6465C19.4466 13.7196 20.0086 12.9243 20.0086 12C20.0086 10.763 19.0022 9.75666 17.7653 9.75666C16.5283 9.75666 15.522 10.763 15.522 12C15.522 12.9243 16.0839 13.7196 16.884 14.0627H14.3217V5.14983C15.1591 4.96734 15.8198 4.30664 16.0022 3.46922H19.5282C19.7107 4.30664 20.3714 4.96734 21.2088 5.14983V6.60717C21.2088 6.86602 21.4187 7.07592 21.6775 7.07592C21.9364 7.07592 22.1463 6.86602 22.1463 6.60717V4.73133C22.1463 4.47248 21.9364 4.26258 21.6775 4.26258C20.9816 4.26258 20.4155 3.69638 20.4155 3.00047C20.4155 2.74163 20.2056 2.53172 19.9467 2.53172H15.5838C15.3249 2.53172 15.115 2.74163 15.115 3.00047C15.115 3.69642 14.5489 4.26258 13.853 4.26258C13.5941 4.26258 13.3842 4.47248 13.3842 4.73133V14.0627H12.4687V0.938016L23.0621 0.9375V23.0625ZM17.7654 13.3058C17.0453 13.3058 16.4596 12.72 16.4596 12C16.4596 11.28 17.0454 10.6942 17.7654 10.6942C18.4854 10.6942 19.0711 11.28 19.0711 12C19.0711 12.72 18.4854 13.3058 17.7654 13.3058Z" fill="#08B675"/>
</g>
<defs>
<clipPath id="clip0">
<rect width="24" height="24" fill="white"/>
</clipPath>
</defs>
</svg>
