<svg width="24" height="24" viewBox="0 0 24 24" fill="none" xmlns="http://www.w3.org/2000/svg">
<g clip-path="url(#clip0)">
<path d="M20.8 10.8176V2.8C20.7982 1.25433 19.5457 0.00176346 18 0H2.8C1.25433 0.00176346 0.00176346 1.25433 0 2.8V18C0.00176346 19.5457 1.25433 20.7982 2.8 20.8H10.8176C12.4346 23.221 15.3508 24.4295 18.2063 23.8617C21.0617 23.2939 23.2939 21.0617 23.8617 18.2063C24.4295 15.3508 23.221 12.4346 20.8 10.8176ZM2.8 20C1.69598 19.9987 0.801322 19.104 0.8 18V2.8C0.801322 1.69598 1.69598 0.801322 2.8 0.8H18C19.104 0.801322 19.9987 1.69598 20 2.8V10.36C19.3661 10.0439 18.6887 9.82387 17.99 9.7072C17.9924 9.6712 18 9.6368 18 9.6004C18 8.71674 17.2837 8.0004 16.4 8.0004H9.2C8.31634 8.0004 7.6 8.71674 7.6 9.6004C7.6 10.4841 8.31634 11.2004 9.2 11.2004H10.4C10.6209 11.2004 10.8 11.0213 10.8 10.8004C10.8 10.5795 10.6209 10.4004 10.4 10.4004H9.2C8.75817 10.4004 8.4 10.0422 8.4 9.6004C8.4 9.15857 8.75817 8.8004 9.2 8.8004H16.4C16.8418 8.8004 17.2 9.15857 17.2 9.6004C17.2 9.6072 17.2 9.6136 17.198 9.6204C17.0656 9.6132 16.9344 9.6004 16.8 9.6004C14.573 9.60203 12.4727 10.6362 11.1136 12.4004H9.2C8.31634 12.4004 7.6 13.1167 7.6 14.0004C7.6 14.8841 8.31634 15.6004 9.2 15.6004H9.7084C9.44178 17.0988 9.67052 18.6432 10.36 20H2.8ZM9.8884 14.8H9.2C8.75817 14.8 8.4 14.4418 8.4 14C8.4 13.5582 8.75817 13.2 9.2 13.2H10.574C10.2812 13.7035 10.051 14.2408 9.8884 14.8ZM16.8 23.2C13.2654 23.2 10.4 20.3346 10.4 16.8C10.4 13.2654 13.2654 10.4 16.8 10.4C20.3346 10.4 23.2 13.2654 23.2 16.8C23.1958 20.3329 20.3329 23.1958 16.8 23.2Z" fill="#939393"/>
<path d="M16.8 19.6C15.2536 19.6 14 18.3464 14 16.8C14 15.2536 15.2536 14 16.8 14C18.3463 14 19.6 15.2536 19.6 16.8C19.6 17.0209 19.779 17.2 20 17.2C20.2209 17.2 20.4 17.0209 20.4 16.8C20.4 14.8118 18.7882 13.2 16.8 13.2C14.8117 13.2 13.2 14.8118 13.2 16.8C13.2 18.7882 14.8117 20.4 16.8 20.4C17.0209 20.4 17.2 20.2209 17.2 20C17.2 19.7791 17.0209 19.6 16.8 19.6Z" fill="#939393"/>
<path d="M18.3073 16.144C18.1643 15.9805 17.917 15.9611 17.7501 16.1001C17.5833 16.2391 17.5579 16.4859 17.6929 16.656L19.6929 19.056C19.7689 19.1471 19.8814 19.1998 20.0001 19.1998C20.1187 19.1998 20.2313 19.1471 20.3073 19.056L22.3073 16.656C22.4029 16.5467 22.4317 16.3942 22.3827 16.2576C22.3337 16.1209 22.2144 16.0215 22.0712 15.9979C21.9279 15.9744 21.7831 16.0303 21.6929 16.144L20.0001 18.1752L18.3073 16.144Z" fill="#939393"/>
<path d="M4.40005 3.59998C3.51639 3.59998 2.80005 4.31632 2.80005 5.19998C2.80005 6.08364 3.51639 6.79998 4.40005 6.79998C5.28371 6.79998 6.00006 6.08364 6.00006 5.19998C6.00006 4.77563 5.83149 4.36866 5.53143 4.06861C5.23137 3.76855 4.8244 3.59998 4.40005 3.59998ZM4.40005 5.99998C3.95822 5.99998 3.60005 5.64181 3.60005 5.19998C3.60005 4.75815 3.95822 4.39998 4.40005 4.39998C4.84188 4.39998 5.20005 4.75815 5.20005 5.19998C5.20005 5.64181 4.84188 5.99998 4.40005 5.99998Z" fill="#939393"/>
<path d="M9.2001 6.79998H14.4001C14.621 6.79998 14.8001 6.6209 14.8001 6.39998C14.8001 6.17907 14.621 5.99998 14.4001 5.99998H9.2001C8.75827 5.99998 8.4001 5.64181 8.4001 5.19998C8.4001 4.75815 8.75827 4.39998 9.2001 4.39998H16.4001C16.8419 4.39998 17.2001 4.75815 17.2001 5.19998C17.2001 5.64181 16.8419 5.99998 16.4001 5.99998C16.1792 5.99998 16.0001 6.17907 16.0001 6.39998C16.0001 6.6209 16.1792 6.79998 16.4001 6.79998C17.2838 6.79998 18.0001 6.08364 18.0001 5.19998C18.0001 4.31632 17.2838 3.59998 16.4001 3.59998H9.2001C8.31644 3.59998 7.6001 4.31632 7.6001 5.19998C7.6001 6.08364 8.31644 6.79998 9.2001 6.79998Z" fill="#939393"/>
<path d="M4.40005 8C3.51639 8 2.80005 8.71635 2.80005 9.6C2.80005 10.4837 3.51639 11.2 4.40005 11.2C5.28371 11.2 6.00006 10.4837 6.00006 9.6C6.00006 8.71635 5.28371 8 4.40005 8ZM4.40005 10.4C3.95822 10.4 3.60005 10.0418 3.60005 9.6C3.60005 9.15817 3.95822 8.8 4.40005 8.8C4.84188 8.8 5.20005 9.15817 5.20005 9.6C5.20005 10.0418 4.84188 10.4 4.40005 10.4Z" fill="#939393"/>
<path d="M4.40005 12.4C3.51639 12.4 2.80005 13.1164 2.80005 14C2.80005 14.8837 3.51639 15.6 4.40005 15.6C5.28371 15.6 6.00006 14.8837 6.00006 14C6.00006 13.1164 5.28371 12.4 4.40005 12.4ZM4.40005 14.8C3.95822 14.8 3.60005 14.4419 3.60005 14C3.60005 13.5582 3.95822 13.2 4.40005 13.2C4.84188 13.2 5.20005 13.5582 5.20005 14C5.20005 14.4419 4.84188 14.8 4.40005 14.8Z" fill="#939393"/>
</g>
<defs>
<clipPath id="clip0">
<rect width="24" height="24" fill="white"/>
</clipPath>
</defs>
</svg>
