<svg width="38" height="38" viewBox="0 0 38 38" fill="none" xmlns="http://www.w3.org/2000/svg">
<circle cx="19" cy="19" r="19" fill="#DBF0E8"/>
<path d="M8.1106 11.5969H21.1019V22.4261H8.1106V11.5969Z" fill="#F9CC4E"/>
<path d="M29.8892 22.4261V17.975L27.2677 13.1939H21.1018V22.4261H29.8892Z" fill="#F95050"/>
<path d="M7.28076 22.4261H30.7187V24.9028H7.28076V22.4261Z" fill="#F95050"/>
<path d="M12.0653 26.4031C13.5809 26.4031 14.8095 25.1745 14.8095 23.6589C14.8095 22.1433 13.5809 20.9147 12.0653 20.9147C10.5497 20.9147 9.32104 22.1433 9.32104 23.6589C9.32104 25.1745 10.5497 26.4031 12.0653 26.4031Z" fill="#6D7A84"/>
<path d="M25.9347 26.4031C27.4502 26.4031 28.6789 25.1745 28.6789 23.6589C28.6789 22.1433 27.4502 20.9147 25.9347 20.9147C24.4191 20.9147 23.1904 22.1433 23.1904 23.6589C23.1904 25.1745 24.4191 26.4031 25.9347 26.4031Z" fill="#6D7A84"/>
<path d="M29.8894 17.9742H27.4926C26.9864 17.9746 26.4895 17.8388 26.0539 17.5812C25.6182 17.3235 25.2599 16.9534 25.0165 16.5097L23.1985 13.1947H27.2671L29.8894 17.9742Z" fill="#E2E8ED"/>
<path d="M28.3357 19.0754H29.8892V20.3581H28.3357V19.0754Z" fill="#E2E8ED"/>
<path d="M12.0653 24.6802C12.6293 24.6802 13.0866 24.2229 13.0866 23.6589C13.0866 23.0948 12.6293 22.6376 12.0653 22.6376C11.5012 22.6376 11.0439 23.0948 11.0439 23.6589C11.0439 24.2229 11.5012 24.6802 12.0653 24.6802Z" fill="#E2E8ED"/>
<path d="M25.9346 24.6802C26.4987 24.6802 26.956 24.2229 26.956 23.6589C26.956 23.0948 26.4987 22.6376 25.9346 22.6376C25.3706 22.6376 24.9133 23.0948 24.9133 23.6589C24.9133 24.2229 25.3706 24.6802 25.9346 24.6802Z" fill="#E2E8ED"/>
<path d="M16.8979 24.0462H21.102V25.7592H16.8979V24.0462Z" fill="#6D7A84"/>
<path d="M16.3254 16.3732H13.3474V17.7063H16.3254V18.9226L18.2082 17.0396L16.3254 15.1569V16.3732Z" fill="#4EC4B5"/>
<path d="M30.7188 22.0706H30.2447V17.975C30.2444 17.9477 30.241 17.9204 30.2345 17.8938C30.2327 17.8867 30.2301 17.88 30.228 17.8735C30.2223 17.854 30.2148 17.835 30.2057 17.8168C30.2037 17.8129 30.2031 17.8087 30.201 17.8048L27.5793 13.0228C27.5486 12.967 27.5036 12.9204 27.4487 12.888C27.3939 12.8555 27.3314 12.8384 27.2677 12.8384H25.9949C25.9006 12.8384 25.8102 12.8759 25.7436 12.9425C25.6769 13.0092 25.6394 13.0996 25.6394 13.1939C25.6394 13.2882 25.6769 13.3786 25.7436 13.4452C25.8102 13.5119 25.9006 13.5493 25.9949 13.5493H27.0573L29.289 17.6188H27.4919C27.0497 17.619 26.6156 17.5003 26.2349 17.2752C25.8543 17.0501 25.5412 16.7267 25.3285 16.3391L23.7991 13.5493H24.4357C24.53 13.5493 24.6204 13.5119 24.6871 13.4452C24.7537 13.3786 24.7912 13.2882 24.7912 13.1939C24.7912 13.0996 24.7537 13.0092 24.6871 12.9425C24.6204 12.8759 24.53 12.8384 24.4357 12.8384H21.4577V11.5969C21.4577 11.5026 21.4203 11.4122 21.3536 11.3456C21.2869 11.2789 21.1965 11.2414 21.1022 11.2414H8.11057C8.06388 11.2414 8.01764 11.2506 7.9745 11.2684C7.93137 11.2863 7.89217 11.3125 7.85915 11.3455C7.82614 11.3785 7.79996 11.4177 7.7821 11.4608C7.76425 11.504 7.75507 11.5502 7.7551 11.5969V16.9336C7.7551 17.0279 7.79255 17.1183 7.85921 17.185C7.92588 17.2516 8.01629 17.2891 8.11057 17.2891C8.20484 17.2891 8.29526 17.2516 8.36192 17.185C8.42859 17.1183 8.46604 17.0279 8.46604 16.9336V11.9516H20.7468V22.0706H14.7219C14.448 21.6101 14.0591 21.2286 13.5934 20.9637C13.1276 20.6987 12.601 20.5594 12.0651 20.5594C11.5293 20.5594 11.0026 20.6987 10.5369 20.9637C10.0711 21.2286 9.6822 21.6101 9.40833 22.0706H8.46604V21.2785C8.46604 21.1842 8.42859 21.0938 8.36192 21.0271C8.29526 20.9604 8.20484 20.923 8.11057 20.923C8.01629 20.923 7.92588 20.9604 7.85921 21.0271C7.79255 21.0938 7.7551 21.1842 7.7551 21.2785V22.0706H7.28101C7.23432 22.0706 7.18808 22.0798 7.14494 22.0976C7.1018 22.1155 7.06261 22.1417 7.02959 22.1747C6.99658 22.2077 6.9704 22.2469 6.95254 22.29C6.93469 22.3332 6.92551 22.3794 6.92554 22.4261V24.9028C6.92554 24.9971 6.96299 25.0875 7.02965 25.1542C7.09631 25.2208 7.18673 25.2583 7.28101 25.2583H9.41483C9.68945 25.7159 10.0779 26.0946 10.5423 26.3575C11.0067 26.6205 11.5313 26.7586 12.065 26.7586C12.5987 26.7586 13.1233 26.6205 13.5877 26.3575C14.0521 26.0946 14.4406 25.7159 14.7152 25.2583H16.5433V25.7592C16.5433 25.8535 16.5808 25.9439 16.6474 26.0105C16.7141 26.0772 16.8045 26.1147 16.8988 26.1147H21.1035C21.1977 26.1147 21.2882 26.0772 21.3548 26.0105C21.4215 25.9439 21.4589 25.8535 21.4589 25.7592V25.2583H23.286C23.5607 25.7159 23.9491 26.0946 24.4135 26.3575C24.8779 26.6205 25.4025 26.7586 25.9362 26.7586C26.4699 26.7586 26.9945 26.6205 27.4589 26.3575C27.9233 26.0946 28.3118 25.7159 28.5864 25.2583H30.7192C30.8135 25.2583 30.9039 25.2208 30.9706 25.1542C31.0372 25.0875 31.0747 24.9971 31.0747 24.9028V22.4261C31.0747 22.3794 31.0655 22.3331 31.0476 22.29C31.0297 22.2468 31.0035 22.2076 30.9705 22.1746C30.9374 22.1415 30.8982 22.1154 30.855 22.0975C30.8118 22.0797 30.7655 22.0706 30.7188 22.0706ZM29.5338 20.0028H28.6912V19.4308H29.5338V20.0028ZM21.4577 13.5493H22.9887L24.7055 16.6805C24.9794 17.18 25.3826 17.5966 25.8729 17.8867C26.3631 18.1769 26.9223 18.3299 27.4919 18.3297H29.5338V18.7191H28.3353C28.2886 18.7191 28.2424 18.7282 28.1993 18.7461C28.1561 18.7639 28.1169 18.7901 28.0839 18.8231C28.0509 18.8561 28.0247 18.8953 28.0069 18.9385C27.989 18.9816 27.9798 19.0279 27.9799 19.0745V20.3575C27.9799 20.4518 28.0173 20.5422 28.084 20.6088C28.1506 20.6755 28.241 20.713 28.3353 20.713H29.5338V22.0698H28.5915C28.3176 21.6093 27.9287 21.2278 27.4629 20.9628C26.9972 20.6979 26.4705 20.5586 25.9347 20.5586C25.3988 20.5586 24.8722 20.6979 24.4064 20.9628C23.9407 21.2278 23.5518 21.6093 23.2779 22.0698H21.4577V13.5493ZM7.63647 24.5473V22.7816H9.0939C8.92174 23.3577 8.92273 23.9718 9.09674 24.5473H7.63647ZM12.0646 26.0476C11.5921 26.0476 11.1303 25.9075 10.7375 25.645C10.3446 25.3825 10.0385 25.0095 9.85766 24.573C9.67687 24.1365 9.62958 23.6562 9.72176 23.1928C9.81395 22.7294 10.0415 22.3038 10.3756 21.9697C10.7097 21.6356 11.1353 21.4081 11.5987 21.316C12.0621 21.2239 12.5424 21.2712 12.9789 21.452C13.4154 21.6328 13.7884 21.9391 14.0509 22.3319C14.3133 22.7248 14.4534 23.1866 14.4534 23.6591C14.4529 24.2925 14.2011 24.8998 13.7533 25.3477C13.3056 25.7957 12.6984 26.0477 12.065 26.0484L12.0646 26.0476ZM20.7462 25.4037H17.253V24.4019H20.7468L20.7462 25.4037ZM21.4571 24.5473V24.0464C21.4571 23.9522 21.4197 23.8617 21.353 23.7951C21.2863 23.7284 21.1959 23.691 21.1016 23.691H16.8969C16.8027 23.691 16.7123 23.7284 16.6456 23.7951C16.5789 23.8617 16.5415 23.9522 16.5415 24.0464V24.5473H15.0335C15.2075 23.9718 15.2085 23.3577 15.0363 22.7816H22.9635C22.7913 23.3577 22.7923 23.9718 22.9663 24.5473H21.4571ZM25.9348 26.0484C25.4624 26.0485 25.0005 25.9084 24.6077 25.646C24.2148 25.3836 23.9086 25.0106 23.7278 24.5741C23.5469 24.1377 23.4996 23.6574 23.5917 23.194C23.6838 22.7306 23.9112 22.305 24.2452 21.9709C24.5792 21.6368 25.0048 21.4092 25.4681 21.3169C25.9315 21.2247 26.4117 21.2719 26.8483 21.4526C27.2848 21.6333 27.6579 21.9394 27.9205 22.3321C28.183 22.7249 28.3232 23.1866 28.3233 23.6591C28.3229 24.2925 28.0711 24.8998 27.6233 25.3478C27.1755 25.7958 26.5682 26.0477 25.9348 26.0484ZM30.3629 24.5482H28.9026C29.0767 23.9726 29.0777 23.3585 28.9055 22.7824H30.3629V24.5482Z" fill="#142850"/>
<path d="M12.065 22.2821C11.7926 22.2821 11.5264 22.3629 11.3 22.5142C11.0735 22.6655 10.897 22.8805 10.7928 23.1321C10.6886 23.3838 10.6613 23.6606 10.7144 23.9277C10.7676 24.1948 10.8987 24.4402 11.0913 24.6328C11.2839 24.8253 11.5292 24.9565 11.7963 25.0096C12.0634 25.0628 12.3403 25.0355 12.5919 24.9313C12.8435 24.827 13.0586 24.6505 13.2099 24.4241C13.3612 24.1977 13.442 23.9314 13.442 23.6591C13.4416 23.294 13.2964 22.944 13.0382 22.6858C12.7801 22.4277 12.4301 22.2825 12.065 22.2821ZM12.065 24.3249C11.9332 24.3249 11.8045 24.2859 11.6949 24.2127C11.5854 24.1395 11.5 24.0354 11.4496 23.9137C11.3992 23.792 11.386 23.6581 11.4117 23.5289C11.4375 23.3997 11.5009 23.281 11.5941 23.1878C11.6872 23.0947 11.8059 23.0313 11.9352 23.0056C12.0644 22.9799 12.1983 22.9932 12.32 23.0436C12.4417 23.094 12.5457 23.1794 12.6189 23.289C12.692 23.3986 12.7311 23.5274 12.731 23.6591C12.7308 23.8357 12.6606 24.0049 12.5357 24.1297C12.4108 24.2546 12.2415 24.3248 12.065 24.3249Z" fill="#142850"/>
<path d="M25.9348 22.2821C25.6625 22.2821 25.3962 22.3628 25.1697 22.5141C24.9433 22.6654 24.7667 22.8804 24.6625 23.132C24.5582 23.3836 24.5309 23.6605 24.5841 23.9276C24.6372 24.1947 24.7683 24.4401 24.9609 24.6327C25.1534 24.8253 25.3988 24.9565 25.6659 25.0096C25.933 25.0627 26.2099 25.0355 26.4615 24.9313C26.7131 24.8271 26.9282 24.6506 27.0795 24.4241C27.2308 24.1977 27.3116 23.9314 27.3116 23.6591C27.3112 23.2941 27.166 22.9441 26.9079 22.686C26.6498 22.4278 26.2998 22.2826 25.9348 22.2821ZM25.9348 24.3249C25.8031 24.325 25.6743 24.2859 25.5647 24.2128C25.4551 24.1396 25.3697 24.0356 25.3193 23.9139C25.2689 23.7922 25.2557 23.6582 25.2813 23.529C25.307 23.3998 25.3705 23.2811 25.4636 23.1879C25.5568 23.0948 25.6755 23.0313 25.8047 23.0056C25.9339 22.9799 26.0679 22.9931 26.1896 23.0436C26.3113 23.094 26.4153 23.1794 26.4885 23.289C26.5617 23.3985 26.6007 23.5273 26.6007 23.6591C26.6004 23.8356 26.5301 24.0048 26.4053 24.1296C26.2805 24.2544 26.1113 24.3247 25.9348 24.3249Z" fill="#142850"/>
<path d="M8.1106 19.9612C8.20487 19.9612 8.29529 19.9238 8.36195 19.8571C8.42861 19.7904 8.46606 19.7 8.46606 19.6057V18.6917C8.46606 18.5974 8.42861 18.507 8.36195 18.4403C8.29529 18.3736 8.20487 18.3362 8.1106 18.3362C8.01632 18.3362 7.9259 18.3736 7.85924 18.4403C7.79258 18.507 7.75513 18.5974 7.75513 18.6917V19.6057C7.7551 19.6524 7.76428 19.6987 7.78213 19.7418C7.79999 19.7849 7.82617 19.8241 7.85918 19.8571C7.8922 19.8902 7.93139 19.9163 7.97453 19.9342C8.01767 19.9521 8.06391 19.9612 8.1106 19.9612Z" fill="#142850"/>
<path d="M24.9133 19.4308H25.9348C26.0291 19.4308 26.1195 19.3934 26.1862 19.3267C26.2529 19.2601 26.2903 19.1696 26.2903 19.0754C26.2903 18.9811 26.2529 18.8907 26.1862 18.824C26.1195 18.7573 26.0291 18.7199 25.9348 18.7199H24.9133C24.8191 18.7199 24.7286 18.7573 24.662 18.824C24.5953 18.8907 24.5579 18.9811 24.5579 19.0754C24.5579 19.1696 24.5953 19.2601 24.662 19.3267C24.7286 19.3934 24.8191 19.4308 24.9133 19.4308Z" fill="#142850"/>
<path d="M16.1893 19.2509C16.2543 19.2778 16.3258 19.2848 16.3947 19.271C16.4637 19.2573 16.527 19.2234 16.5767 19.1737L18.4595 17.2911C18.5261 17.2244 18.5635 17.134 18.5635 17.0397C18.5635 16.9455 18.5261 16.8551 18.4595 16.7884L16.5767 14.9056C16.527 14.8558 16.4637 14.8219 16.3947 14.8082C16.3258 14.7944 16.2543 14.8014 16.1893 14.8283C16.1243 14.8552 16.0688 14.9008 16.0298 14.9593C15.9907 15.0178 15.9699 15.0866 15.97 15.1569V16.0175H13.3474C13.2531 16.0175 13.1627 16.055 13.0961 16.1216C13.0294 16.1883 12.9919 16.2787 12.9919 16.373V17.7063C12.9919 17.753 13.0011 17.7992 13.0189 17.8424C13.0368 17.8855 13.063 17.9247 13.096 17.9577C13.129 17.9907 13.1682 18.0169 13.2113 18.0348C13.2545 18.0526 13.3007 18.0618 13.3474 18.0618H15.97V18.9224C15.97 18.9927 15.9908 19.0614 16.0299 19.1199C16.0689 19.1784 16.1244 19.2239 16.1893 19.2509ZM13.7029 17.3508V16.7285H16.3254C16.3721 16.7285 16.4184 16.7193 16.4615 16.7015C16.5046 16.6836 16.5438 16.6574 16.5768 16.6244C16.6099 16.5914 16.636 16.5522 16.6539 16.5091C16.6717 16.4659 16.6809 16.4197 16.6809 16.373V16.0153L17.7055 17.0398L16.6809 18.0644V17.7063C16.6809 17.6596 16.6717 17.6134 16.6539 17.5702C16.636 17.5271 16.6099 17.4879 16.5768 17.4549C16.5438 17.4219 16.5046 17.3957 16.4615 17.3778C16.4184 17.36 16.3721 17.3508 16.3254 17.3508H13.7029Z" fill="#142850"/>
<path d="M12.5315 17.7063V16.373C12.5315 16.2787 12.494 16.1883 12.4274 16.1216C12.3607 16.055 12.2703 16.0175 12.176 16.0175C12.0817 16.0175 11.9913 16.055 11.9247 16.1216C11.858 16.1883 11.8206 16.2787 11.8206 16.373V17.7063C11.8206 17.8006 11.858 17.891 11.9247 17.9577C11.9913 18.0243 12.0817 18.0618 12.176 18.0618C12.2703 18.0618 12.3607 18.0243 12.4274 17.9577C12.494 17.891 12.5315 17.8006 12.5315 17.7063Z" fill="#142850"/>
<path d="M11.3599 17.7063V16.373C11.3599 16.2787 11.3224 16.1883 11.2557 16.1216C11.1891 16.055 11.0987 16.0175 11.0044 16.0175C10.9101 16.0175 10.8197 16.055 10.753 16.1216C10.6864 16.1883 10.6489 16.2787 10.6489 16.373V17.7063C10.6489 17.8006 10.6864 17.891 10.753 17.9577C10.8197 18.0243 10.9101 18.0618 11.0044 18.0618C11.0987 18.0618 11.1891 18.0243 11.2557 17.9577C11.3224 17.891 11.3599 17.8006 11.3599 17.7063Z" fill="#142850"/>
</svg>
