<?xml version="1.0" encoding="iso-8859-1"?>
<!-- Generator: Adobe Illustrator 19.0.0, SVG Export Plug-In . SVG Version: 6.00 Build 0)  -->
<svg version="1.1" id="Capa_1" xmlns="http://www.w3.org/2000/svg" xmlns:xlink="http://www.w3.org/1999/xlink" x="0px" y="0px"
	 viewBox="0 0 512 512" style="enable-background:new 0 0 512 512;" xml:space="preserve">
<g>
	<path style="fill:#FFDA44;" d="M307.2,460.8v-33.664c0,0-102.4-0.469-102.4,0V460.8H307.2z"/>
	<path style="fill:#FFDA44;" d="M307.2,361.097c-0.162-11.947,6.076-23.066,16.358-29.15
		c65.527-37.308,88.405-120.678,51.098-186.206S253.978,57.335,188.45,94.643s-88.405,120.678-51.098,186.206
		c12.032,21.137,29.5,38.682,50.594,50.807c10.479,6.076,16.905,17.297,16.853,29.406v31.471h102.4V361.097z M182.127,233.327
		L230.4,281.6l96.546-96.546L230.4,281.6L182.127,233.327z M307.2,358.4l-102.4-0.247L307.2,358.4z"/>
	<path style="fill:#FFDA44;" d="M307.2,427.136v-34.603H204.8v34.603C204.8,426.667,307.2,427.136,307.2,427.136z"/>
	<path style="fill:#FFDA44;" d="M256,503.467c18.85,0,34.133-15.283,34.133-34.133V460.8h-68.267v8.533
		C221.867,488.184,237.15,503.467,256,503.467z"/>
</g>
<path id="SVGCleanerId_0" style="fill:#231F20;" d="M256,51.2c-4.71,0-8.533-3.823-8.533-8.533V8.533C247.467,3.823,251.29,0,256,0
	c4.71,0,8.533,3.823,8.533,8.533v34.133C264.533,47.377,260.71,51.2,256,51.2z"/>
<path id="SVGCleanerId_1" style="fill:#231F20;" d="M170.667,74.069c-3.055,0-5.871-1.621-7.398-4.267l-17.067-29.568
	c-2.33-4.096-0.896-9.31,3.2-11.639c4.062-2.304,9.216-0.922,11.58,3.106l17.067,29.568c2.355,4.079,0.956,9.301-3.123,11.657
	C173.628,73.677,172.16,74.069,170.667,74.069z"/>
<path style="fill:#231F20;" d="M108.194,136.533c-1.502,0-2.97-0.393-4.267-1.143l-29.568-17.067
	c-4.062-2.381-5.427-7.612-3.046-11.674c2.364-4.028,7.518-5.41,11.58-3.106l29.568,17.067c4.079,2.355,5.478,7.578,3.123,11.657
	C114.057,134.903,111.241,136.533,108.194,136.533z"/>
<path id="SVGCleanerId_2" style="fill:#231F20;" d="M85.333,221.867H51.2c-4.71,0-8.533-3.823-8.533-8.533S46.49,204.8,51.2,204.8
	h34.133c4.71,0,8.533,3.823,8.533,8.533S90.044,221.867,85.333,221.867z"/>
<g>
	<path style="fill:#231F20;" d="M78.643,324.267c-4.71,0-8.533-3.823-8.533-8.533c0-3.046,1.63-5.862,4.267-7.39l29.568-17.067
		c4.062-2.381,9.293-1.024,11.674,3.046c2.381,4.062,1.024,9.293-3.046,11.674c-0.034,0.017-0.068,0.043-0.102,0.06l-29.568,17.067
		C81.613,323.874,80.145,324.267,78.643,324.267z"/>
	<path style="fill:#231F20;" d="M433.357,324.267c-1.502,0-2.97-0.393-4.267-1.143l-29.568-17.067
		c-4.096-2.33-5.53-7.535-3.2-11.639c2.33-4.096,7.535-5.53,11.639-3.2c0.034,0.017,0.068,0.034,0.102,0.06l29.568,17.067
		c4.079,2.355,5.478,7.578,3.123,11.657C439.219,322.637,436.403,324.267,433.357,324.267z"/>
</g>
<path id="SVGCleanerId_3" style="fill:#231F20;" d="M460.8,221.867h-34.133c-4.71,0-8.533-3.823-8.533-8.533
	s3.823-8.533,8.533-8.533H460.8c4.71,0,8.533,3.823,8.533,8.533S465.51,221.867,460.8,221.867z"/>
<g>
	<path style="fill:#231F20;" d="M403.806,136.533c-4.71,0-8.533-3.823-8.533-8.533c0-3.046,1.63-5.862,4.267-7.39l29.568-17.067
		c4.062-2.381,9.293-1.015,11.674,3.046c2.381,4.062,1.015,9.293-3.046,11.674c-0.034,0.017-0.068,0.034-0.094,0.06l-29.568,17.067
		C406.775,136.141,405.308,136.533,403.806,136.533z"/>
	<path style="fill:#231F20;" d="M341.333,74.069c-4.71-0.009-8.533-3.831-8.525-8.542c0-1.493,0.393-2.961,1.143-4.258
		l17.067-29.568c2.381-4.062,7.612-5.427,11.674-3.046c4.028,2.364,5.41,7.518,3.106,11.58l-17.067,29.568
		C347.204,72.448,344.388,74.069,341.333,74.069z"/>
</g>
<g>
	<path id="SVGCleanerId_0_1_" style="fill:#231F20;" d="M256,51.2c-4.71,0-8.533-3.823-8.533-8.533V8.533
		C247.467,3.823,251.29,0,256,0c4.71,0,8.533,3.823,8.533,8.533v34.133C264.533,47.377,260.71,51.2,256,51.2z"/>
</g>
<g>
	<path id="SVGCleanerId_1_1_" style="fill:#231F20;" d="M170.667,74.069c-3.055,0-5.871-1.621-7.398-4.267l-17.067-29.568
		c-2.33-4.096-0.896-9.31,3.2-11.639c4.062-2.304,9.216-0.922,11.58,3.106l17.067,29.568c2.355,4.079,0.956,9.301-3.123,11.657
		C173.628,73.677,172.16,74.069,170.667,74.069z"/>
</g>
<g>
	<path id="SVGCleanerId_2_1_" style="fill:#231F20;" d="M85.333,221.867H51.2c-4.71,0-8.533-3.823-8.533-8.533
		S46.49,204.8,51.2,204.8h34.133c4.71,0,8.533,3.823,8.533,8.533S90.044,221.867,85.333,221.867z"/>
</g>
<g>
	<path id="SVGCleanerId_3_1_" style="fill:#231F20;" d="M460.8,221.867h-34.133c-4.71,0-8.533-3.823-8.533-8.533
		s3.823-8.533,8.533-8.533H460.8c4.71,0,8.533,3.823,8.533,8.533S465.51,221.867,460.8,221.867z"/>
</g>
<g>
	<path style="fill:#231F20;" d="M263.322,68.446c-80.017-4.045-148.156,57.54-152.201,137.557c-0.128,2.441-0.188,4.89-0.188,7.33
		c0.077,51.9,27.802,99.823,72.755,125.747c7.817,4.557,12.612,12.937,12.578,21.982V460.8c0,4.71,3.823,8.533,8.533,8.533h8.533
		C213.333,492.894,232.439,512,256,512c23.561,0,42.667-19.106,42.667-42.667h8.533c4.71,0,8.533-3.823,8.533-8.533v-99.703
		c-0.171-8.875,4.429-17.152,12.041-21.709c69.623-39.646,93.918-128.222,54.272-197.845
		C357.547,98.509,312.781,70.946,263.322,68.446z M298.667,366.933V384h-85.333v-17.067H298.667z M213.333,401.067h85.333v17.067
		h-85.333V401.067z M256,494.933c-14.14,0-25.6-11.46-25.6-25.6h51.2C281.6,483.473,270.14,494.933,256,494.933z M213.333,452.267
		V435.2h85.333v17.067H213.333z M319.334,324.557c-9.532,5.53-16.444,14.643-19.191,25.31l-88.388-0.213
		c-2.935-10.701-9.958-19.823-19.558-25.387c-39.663-22.869-64.128-65.152-64.196-110.933c0-70.69,57.31-128,128-128
		c2.159,0,4.318,0.051,6.477,0.162c70.605,3.584,124.928,63.727,121.344,134.323C381.611,263.45,357.299,302.933,319.334,324.557z"
		/>
	<path style="fill:#231F20;" d="M230.4,290.133c-2.261,0-4.437-0.896-6.033-2.5l-48.273-48.273
		c-3.277-3.388-3.183-8.789,0.213-12.066c3.311-3.191,8.55-3.191,11.853,0l42.24,42.24l90.505-90.513
		c3.337-3.337,8.738-3.337,12.075,0c3.337,3.337,3.337,8.738,0,12.075l-96.546,96.538
		C234.837,289.237,232.661,290.133,230.4,290.133z"/>
</g>
<g>
</g>
<g>
</g>
<g>
</g>
<g>
</g>
<g>
</g>
<g>
</g>
<g>
</g>
<g>
</g>
<g>
</g>
<g>
</g>
<g>
</g>
<g>
</g>
<g>
</g>
<g>
</g>
<g>
</g>
</svg>
