<svg id="Capa_1" enable-background="new 0 0 512 512" height="512" viewBox="0 0 512 512" width="512" xmlns="http://www.w3.org/2000/svg"><g><g><g><path d="m258.189 49.832c-42.413-.586-82.502 15.574-112.96 45.472-30.443 29.884-47.324 69.669-47.535 112.029-.174 35.022 10.857 68.263 31.902 96.13 20.351 26.95 49.305 47.028 81.527 56.538 2.941.868 5.159 3.291 5.876 6.22-17.164.321-31.028 14.383-31.028 31.624 0 11.177 5.827 21.019 14.603 26.647-2.994 4.831-4.724 10.524-4.724 16.614 0 16.392 12.535 29.911 28.522 31.477v7.788c0 17.441 14.189 31.63 31.628 31.63s31.628-14.189 31.628-31.63v-7.788c15.988-1.566 28.523-15.086 28.523-31.478 0-6.089-1.73-11.782-4.724-16.613 8.776-5.628 14.603-15.469 14.603-26.646 0-17.241-13.865-31.303-31.03-31.624.714-2.928 2.923-5.348 5.854-6.213 32.101-9.468 60.98-29.44 81.318-56.238 21.023-27.7 32.136-60.77 32.136-95.634 0-41.907-16.212-81.409-45.65-111.227-29.411-29.792-68.643-46.511-110.469-47.078zm9.439 430.538c0 6.413-5.216 11.63-11.628 11.63s-11.628-5.217-11.628-11.63v-7.636h23.257v7.636zm16.894-27.636h-57.043c-6.413 0-11.629-5.217-11.629-11.63 0-6.412 5.217-11.629 11.629-11.629h57.043c6.413 0 11.629 5.217 11.629 11.63 0 6.412-5.217 11.629-11.629 11.629zm21.508-54.89c0 6.413-5.216 11.63-11.628 11.63h-76.803c-6.412 0-11.628-5.217-11.628-11.63s5.216-11.63 11.628-11.63h76.803c6.412 0 11.628 5.218 11.628 11.63zm-10.834-57.019c-11.378 3.355-19.513 13.624-20.368 25.39h-37.657c-.857-11.762-8.998-22.034-20.387-25.396-58.647-17.307-99.395-72.158-99.091-133.386.184-36.985 14.938-71.738 41.545-97.856 26.622-26.133 61.637-40.279 98.678-39.747 75.207 1.02 136.391 63.064 136.391 138.306.001 60.913-40.755 115.477-99.111 132.689z"/><path d="m175.499 127.154c-8.336 8.283-15.311 17.669-20.729 27.897-2.585 4.88-.725 10.933 4.156 13.518 1.493.791 3.094 1.165 4.672 1.165 3.585 0 7.051-1.933 8.846-5.321 4.474-8.447 10.245-16.21 17.152-23.072 3.917-3.893 3.938-10.224.045-14.142-3.892-3.918-10.224-3.938-14.142-.045z"/><path d="m160.86 200.32c-1.588-3.874-5.592-6.386-9.771-6.16-4.162.225-7.817 3.097-9.03 7.08-1.2 3.943.214 8.322 3.478 10.834 3.348 2.576 8.129 2.739 11.642.386 3.908-2.617 5.491-7.795 3.681-12.14z"/><path d="m256 30.973c5.523 0 10-4.477 10-10v-10.973c0-5.523-4.477-10-10-10s-10 4.477-10 10v10.973c0 5.523 4.477 10 10 10z"/><path d="m459.296 203.311h-10.972c-5.523 0-10 4.477-10 10s4.477 10 10 10h10.972c5.523 0 10-4.477 10-10 0-5.522-4.477-10-10-10z"/><path d="m63.675 203.311h-10.971c-5.523 0-10 4.477-10 10s4.477 10 10 10h10.972c5.523 0 10-4.477 10-10-.001-5.522-4.478-10-10.001-10z"/><path d="m391.994 87.308c2.559 0 5.119-.977 7.071-2.929l7.758-7.759c3.905-3.906 3.905-10.237 0-14.142-3.906-3.905-10.238-3.905-14.142 0l-7.758 7.759c-3.905 3.906-3.905 10.237 0 14.142 1.953 1.952 4.512 2.929 7.071 2.929z"/><path d="m112.935 342.245-7.758 7.759c-3.905 3.905-3.905 10.237.001 14.142 1.953 1.953 4.512 2.929 7.071 2.929s5.119-.977 7.071-2.929l7.758-7.759c3.905-3.905 3.905-10.237 0-14.142-3.907-3.906-10.238-3.906-14.143 0z"/><path d="m399.065 342.245c-3.904-3.905-10.237-3.905-14.142 0s-3.906 10.237 0 14.142l7.758 7.759c1.953 1.953 4.512 2.929 7.071 2.929s5.118-.977 7.071-2.929c3.905-3.905 3.906-10.237 0-14.142z"/><path d="m112.935 84.378c1.953 1.953 4.512 2.929 7.071 2.929s5.118-.976 7.071-2.929c3.905-3.905 3.906-10.236 0-14.142l-7.758-7.759c-3.905-3.905-10.236-3.906-14.142 0-3.905 3.905-3.906 10.236-.001 14.142z"/><path d="m284.204 199.706 20.648-33.594c1.896-3.085 1.976-6.956.208-10.117s-5.106-5.12-8.728-5.12h-42.674c-8.365 0-15.963 4.608-19.829 12.026l-25.638 49.193c-3.644 6.991-3.379 15.19.71 21.932 4.088 6.741 11.235 10.765 19.119 10.765h12.413l-.922 44.714c-.09 4.357 2.653 8.271 6.78 9.674 1.057.359 2.143.533 3.217.533 3.117 0 6.131-1.461 8.054-4.071l44.416-60.316c5.03-6.831 5.778-15.777 1.951-23.348-3.792-7.5-11.335-12.187-19.725-12.271zm1.67 23.762-25.716 34.921.482-23.391c.055-2.688-.974-5.284-2.854-7.204-1.881-1.92-4.456-3.002-7.143-3.002h-22.622c-1.098 0-1.704-.618-2.018-1.137s-.583-1.342-.075-2.317l25.639-49.193c.408-.783 1.21-1.269 2.093-1.269h24.79l-20.648 33.593c-1.897 3.086-1.976 6.956-.208 10.117s5.106 5.12 8.728 5.12h17.653c1.2 0 1.808.705 2.107 1.296.297.591.504 1.499-.208 2.466z"/></g></g></g></svg>