<svg width="24" height="24" viewBox="0 0 24 24" fill="none" xmlns="http://www.w3.org/2000/svg">
<path fill-rule="evenodd" clip-rule="evenodd" d="M8.31751 0.00424194H15.6826C22.4043 0.00424194 23.9958 1.59578 23.9958 8.31747V15.6826C23.9958 22.4042 22.4043 23.9958 15.6826 23.9958H8.31751C1.59581 23.9958 0.00427246 22.4042 0.00427246 15.6826V8.31747C0.00427246 1.59578 1.59581 0.00424194 8.31751 0.00424194Z" fill="#4680C2"/>
<path fill-rule="evenodd" clip-rule="evenodd" d="M19.6445 8.26666C19.763 7.89417 19.6445 7.62327 19.1197 7.62327H17.3757C16.9355 7.62327 16.7323 7.86031 16.6138 8.11428C16.6138 8.11428 15.7165 10.2815 14.4636 11.6868C14.0572 12.0931 13.871 12.2286 13.6509 12.2286C13.5323 12.2286 13.38 12.0931 13.38 11.7206V8.24972C13.38 7.80951 13.2445 7.60634 12.872 7.60634H10.1292C9.85827 7.60634 9.68896 7.80951 9.68896 8.01269C9.68896 8.43597 10.3154 8.53756 10.3831 9.72274V12.2963C10.3831 12.855 10.2816 12.9566 10.0615 12.9566C9.46886 12.9566 8.0297 10.7725 7.16621 8.28359C6.9969 7.79258 6.82759 7.60634 6.38738 7.60634H4.62653C4.11859 7.60634 4.03394 7.84337 4.03394 8.09734C4.03394 8.55449 4.62653 10.8571 6.79372 13.9048C8.23288 15.9873 10.2816 17.1048 12.1271 17.1048C13.2445 17.1048 13.38 16.8508 13.38 16.4275V14.8529C13.38 14.345 13.4816 14.2603 13.8371 14.2603C14.0911 14.2603 14.5482 14.3958 15.581 15.3947C16.7662 16.5799 16.9694 17.1217 17.6297 17.1217H19.3736C19.8816 17.1217 20.1186 16.8677 19.9831 16.3767C19.8308 15.8857 19.2551 15.1746 18.5101 14.328C18.1038 13.854 17.4943 13.3291 17.308 13.0751C17.054 12.7365 17.1218 12.601 17.308 12.2963C17.2911 12.2963 19.4244 9.28253 19.6445 8.26666Z" fill="white"/>
</svg>
