<?xml version="1.0" encoding="UTF-8"?>
<svg width="168px" height="37px" viewBox="0 0 168 37" version="1.1" xmlns="http://www.w3.org/2000/svg" xmlns:xlink="http://www.w3.org/1999/xlink">
    <!-- Generator: Sketch 52.6 (67491) - http://www.bohemiancoding.com/sketch -->
    <title>Logos / LR_logo_RU_167x40 Copy 2</title>
    <desc>Created with Sketch.</desc>
    <g id="Page-1" stroke="none" stroke-width="1" fill="none" fill-rule="evenodd">
        <g id="Brandbook-Page" transform="translate(-60.000000, -1342.000000)">
            <g id="4-3" transform="translate(0.000000, 1018.000000)">
                <g id="logos" transform="translate(29.000000, 237.000000)">
                    <g id="1x3">
                        <g id="Group-3" transform="translate(0.000000, 30.000000)">
                            <g id="Group-13">
                                <g id="Logos-/-_LR_logo_RU_167x40" transform="translate(31.000000, 57.000000)">
                                    <g id="Group">
                                        <path d="M14.5249248,6.97287362 C14.3912444,10.1479406 14.2404771,13.0382978 14.0736279,15.6459574 C13.9057736,18.2526109 13.6806278,20.6017178 13.3981903,22.6892539 C13.1137426,24.777796 12.7378294,26.6248882 12.2704506,28.2285184 C11.8030719,29.8331546 11.2020128,31.2194797 10.4672733,32.389506 C9.99989461,33.1591277 9.47321406,33.7939399 8.88924193,34.2949486 C8.30526979,34.7949512 7.69516465,35.1963618 7.06194186,35.4981742 C6.42670883,35.7989806 5.80052184,36.0072312 5.18338089,36.1249381 C4.56523483,36.2416389 3.98930362,36.2999893 3.45558726,36.2999893 C2.68767898,36.2999893 2.04440503,36.2416389 1.52677052,36.1249381 C1.00913601,36.0072312 0.50155266,35.83218 0,35.5977723 L0.750821316,29.6832544 C0.95083931,29.7506592 1.1508573,29.7999552 1.35188041,29.8331546 C1.55189841,29.8663539 1.75292152,29.8834566 1.95293951,29.8834566 C2.48665587,29.8834566 3.01333642,29.7506592 3.52996581,29.48104 C4.04760032,29.2154451 4.48985116,28.7637324 4.85872857,28.1279142 C5.358271,27.39451 5.79248092,26.3170395 6.16035321,24.8955029 C6.52722038,23.4749723 6.85287782,21.6620855 7.13632041,19.4558365 C7.41976299,17.2495875 7.64591399,14.618789 7.81276317,11.5604228 C7.97860724,8.50205669 8.09520064,4.93563959 8.1635485,0.858153397 L28.8488265,0.858153397 L28.8488265,35.9488808 L21.9869027,35.9488808 L21.9869027,6.97287362 L14.5249248,6.97287362 Z" id="Fill-1" fill="#000000"></path>
                                        <polygon id="Fill-2" fill="#000000" points="49.4104753 20.9598686 49.2607131 20.9598686 47.1067505 24.6188415 38.1913756 35.9488808 34.0844734 35.9488808 34.0844734 10.8833569 40.595612 10.8833569 40.595612 22.814003 40.2950824 26.2234777 40.4951004 26.2234777 42.5495566 22.6641028 51.564438 10.8833569 55.6713401 10.8833569 55.6713401 35.9488808 49.1612067 35.9488808 49.1612067 24.5182373"></polygon>
                                        <polygon id="Fill-3" fill="#000000" points="73.3473022 16.6479747 73.3473022 35.9478748 66.6361456 35.9478748 66.6361456 16.6479747 59.4746973 16.6479747 59.4746973 10.8823509 80.3097376 10.8823509 80.3097376 16.6479747"></polygon>
                                        <path d="M94.8004885,6.27065665 C94.1330917,6.27065665 93.4978587,6.29580769 92.8978047,6.34610976 C92.2967456,6.3954058 91.8122799,6.45476225 91.4454127,6.52216703 L91.4454127,17.9015024 C91.578088,17.9347018 91.778106,17.9689072 92.0464718,18.0011005 C92.3128275,18.0353059 92.5982803,18.060457 92.8978047,18.0765536 C93.1973292,18.0936563 93.4898178,18.1017047 93.7742655,18.1017047 L94.3994474,18.1017047 C95.3020411,18.1017047 96.1955888,18.0192093 97.0790854,17.8512003 C97.9645922,17.6852035 98.7576284,17.3753427 99.459199,16.9246361 C100.16077,16.4729235 100.718609,15.8461596 101.136737,15.0433385 C101.552855,14.2415234 101.762924,13.189204 101.762924,11.8863803 C101.762924,10.7827528 101.562906,9.87228521 101.161865,9.15296554 C100.761829,8.43565795 100.234143,7.85819013 99.5838334,7.42458625 C98.9335236,6.98997632 98.188733,6.68816387 97.3554922,6.52216703 C96.5212463,6.3541581 95.6679032,6.27065665 94.8004885,6.27065665 M89.2170716,0.581491985 C90.9016452,0.430585761 92.5801882,0.355132649 94.2496851,0.355132649 C95.9855197,0.355132649 97.7314054,0.497990541 99.4833218,0.781694243 C101.236243,1.06539795 102.81528,1.63381139 104.216411,2.48592854 C105.619552,3.33804569 106.762369,4.52416861 107.64687,6.04429732 C108.530367,7.5664381 108.973623,9.54632777 108.973623,11.9849724 C108.973623,14.1912214 108.591679,16.0554163 107.82176,17.575545 C107.053852,19.0966797 106.036675,20.340147 104.767214,21.309971 C103.497753,22.279795 102.054407,22.982012 100.436171,23.4156158 C98.8159251,23.8512318 97.1373821,24.0675307 95.4035578,24.0675307 L94.5994653,24.0675307 C94.2315931,24.0675307 93.8496491,24.0584764 93.4476029,24.0423797 C93.0475669,24.025277 92.6545668,24.001132 92.2706126,23.9679326 C91.8866585,23.9347333 91.6102517,23.9005278 91.4444076,23.8673285 L91.4444076,35.9488808 L84.5834889,35.9488808 L84.5834889,1.2072498 C85.98462,0.9406488 87.5304877,0.731392168 89.2170716,0.581491985 Z" id="Fill-4" fill="#FF4C00"></path>
                                        <path d="M122.035099,15.2918308 C119.99974,15.3511872 119.048901,15.8642684 118.198573,16.8642736 C117.354276,17.8592487 116.866795,19.2174047 116.702961,20.921639 L126.054556,21.0091646 C126.187232,19.2053322 126.025408,17.8119647 125.34595,16.8431467 C124.665487,15.8733227 123.496537,15.248571 122.035099,15.2918308 M127.230542,35.8231256 C125.512799,36.3754424 123.683489,36.6510978 121.746631,36.6510978 C117.706067,36.6510978 114.752032,35.4730232 112.881512,33.115868 C111.011997,30.7597188 110.078245,27.5263014 110.078245,23.4156158 C110.078245,19.0051299 111.129596,15.6952534 113.232297,13.4900104 C115.336004,11.2837614 118.291044,10.18114 122.097417,10.18114 C123.365872,10.18114 124.602165,10.3481428 125.804283,10.6821486 C127.006401,11.0161544 128.073834,11.5684712 129.009596,12.3360808 C129.945359,13.1057026 130.69618,14.1419253 131.263065,15.4447491 C131.830956,16.7475728 132.115403,18.3703177 132.115403,20.3089597 C132.115403,21.0091646 132.073188,21.7616836 131.989764,22.5634987 C131.906339,23.3653138 131.781705,24.2003282 131.614856,25.0705541 L116.519025,25.0705541 C116.619537,27.176199 117.278893,28.7627264 118.260891,29.8321485 C119.241883,30.9025767 120.831976,31.4357787 123.027148,31.4357787 C124.390085,31.4357787 125.594214,31.1701837 126.69582,30.8100209 C128.068808,30.3613263 129.361387,29.7496531 129.361387,29.7496531 L131.313321,33.7929339 C130.311221,34.594749 128.950294,35.2718149 127.230542,35.8231256 Z" id="Fill-5" fill="#FF4C00"></path>
                                        <path d="M153.281127,15.7264407 C153.281127,15.7264407 151.287982,15.321006 149.717992,15.321006 C145.248243,15.321006 142.346474,17.8823876 142.346474,23.5353348 C142.346474,28.8381795 144.559739,31.4579116 149.227495,31.4579116 C150.74924,31.4579116 153.682168,31.0504648 153.682168,31.0504648 L154.579736,35.5806696 C153.353495,35.9720198 150.945238,36.5635722 148.04749,36.5635722 C138.961245,36.5635722 135.620241,29.9267164 135.620241,23.1912686 C135.620241,16.4075308 139.549238,10.3109193 148.588242,10.3109193 C150.257739,10.3109193 152.318226,10.5070974 154.235986,10.9990517 L153.281127,15.7264407" id="Fill-6" fill="#FF4C00"></path>
                                        <path d="M163.567479,18.0292697 C161.525084,18.0292697 159.871669,16.3743314 159.871669,14.3310611 C159.871669,12.2877908 161.525084,10.6318465 163.567479,10.6318465 C165.606858,10.6318465 167.262284,12.2877908 167.262284,14.3310611 C167.262284,16.3743314 165.606858,18.0292697 163.567479,18.0292697 Z" id="Fill-7" fill="#FF4C00"></path>
                                        <path d="M167.262284,32.6219016 C167.262284,34.6641658 165.606858,36.3201101 163.567479,36.3201101 C161.525084,36.3201101 159.871669,34.6641658 159.871669,32.6219016 C159.871669,30.5776253 161.525084,28.921681 163.567479,28.921681 C165.606858,28.921681 167.262284,30.5786313 167.262284,32.6219016" id="Fill-8" fill="#FF4C00"></path>
                                    </g>
                                </g>
                            </g>
                        </g>
                    </g>
                </g>
            </g>
        </g>
    </g>
</svg>