<svg id="Capa_1" enable-background="new 0 0 512 512" height="512" viewBox="0 0 512 512" width="512" xmlns="http://www.w3.org/2000/svg"><g><path d="m137.354 183.749c-2.152-.761-4.353-1.558-6.548-2.388v-35.129c5.496 1.331 8.77 4.108 9.06 4.362 3.047 2.759 7.755 2.552 10.546-.476 2.808-3.045 2.616-7.79-.429-10.599-.424-.391-7.534-6.799-19.177-8.559v-7.15c0-4.143-3.358-7.5-7.5-7.5s-7.5 3.357-7.5 7.5v7.725c-1.095.242-2.204.519-3.339.861-10.674 3.216-18.65 12.352-20.815 23.841-1.974 10.478 1.383 20.581 8.763 26.369 3.901 3.059 8.752 5.861 15.391 8.818v44.585c-5.711-.428-9.696-1.844-16.194-6.094-3.467-2.268-8.116-1.297-10.382 2.171-2.268 3.466-1.296 8.114 2.17 10.382 9.516 6.224 16.02 8.088 24.406 8.565v8.008c0 4.143 3.358 7.5 7.5 7.5s7.5-3.357 7.5-7.5v-8.606c16.713-3.297 26.474-17.087 28.639-29.968 2.787-16.577-5.885-30.989-22.091-36.718zm-27.682-12.945c-2.956-2.318-4.213-6.836-3.279-11.789.834-4.424 3.744-9.738 9.414-11.911v27.628c-2.308-1.256-4.395-2.564-6.135-3.928zm34.981 47.175c-1.141 6.785-5.856 13.975-13.847 16.866v-37.509c.516.185 1.019.367 1.549.555 13.728 4.853 12.884 16.603 12.298 20.088z"/><path d="m183.716 250h33.5c4.142 0 7.5-3.357 7.5-7.5s-3.358-7.5-7.5-7.5h-33.5c-4.142 0-7.5 3.357-7.5 7.5s3.358 7.5 7.5 7.5z"/><path d="m183.716 220h53.5c4.142 0 7.5-3.357 7.5-7.5s-3.358-7.5-7.5-7.5h-53.5c-4.142 0-7.5 3.357-7.5 7.5s3.358 7.5 7.5 7.5z"/><path d="m183.716 190h73.5c4.142 0 7.5-3.357 7.5-7.5s-3.358-7.5-7.5-7.5h-73.5c-4.142 0-7.5 3.357-7.5 7.5s3.358 7.5 7.5 7.5z"/><path d="m183.716 160h113.5c4.142 0 7.5-3.357 7.5-7.5s-3.358-7.5-7.5-7.5h-113.5c-4.142 0-7.5 3.357-7.5 7.5s3.358 7.5 7.5 7.5z"/><path d="m480.975 164.497-10.607-10.606c-6.938-6.938-17.654-7.092-24.395-.354l-13.609 13.609c-2.915-1.442-6.094-2.265-9.372-2.342-5.976-.14-11.635 2.136-15.91 6.412v-.001l-36.367 36.367v-130.082c0-17.921-14.58-32.5-32.5-32.5h-39.5v-7.5c0-12.406-10.093-22.5-22.5-22.5h-38.7c-1.22-8.466-8.502-15-17.3-15h-44c-8.798 0-16.081 6.534-17.3 15h-38.7c-12.407 0-22.5 10.094-22.5 22.5v7.5h-39.5c-17.92 0-32.5 14.579-32.5 32.5v332c0 4.143 3.358 7.5 7.5 7.5s7.5-3.357 7.5-7.5v-332c0-9.649 7.851-17.5 17.5-17.5h100.5v15h-90.5c-6.893 0-12.5 5.607-12.5 12.5v382c0 6.893 5.607 12.5 12.5 12.5h260c6.893 0 12.5-5.607 12.5-12.5v-118.781l15-15v143.781c0 9.649-7.851 17.5-17.5 17.5h-280c-9.649 0-17.5-7.851-17.5-17.5v-35c0-4.143-3.358-7.5-7.5-7.5s-7.5 3.357-7.5 7.5v35c0 17.921 14.58 32.5 32.5 32.5h280c17.92 0 32.5-14.579 32.5-32.5v-158.781l92.936-92.936c4.275-4.275 6.552-9.926 6.411-15.909-.077-3.278-.901-6.457-2.343-9.372l13.609-13.608c6.742-6.742 6.586-17.457-.353-24.397zm-197.259-126.997v15c0 4.143 3.358 7.5 7.5 7.5h47c9.649 0 17.5 7.851 17.5 17.5v145.082l-15 15v-150.082c0-6.893-5.607-12.5-12.5-12.5h-90.5v-15h18.5c4.142 0 7.5-3.357 7.5-7.5s-3.358-7.5-7.5-7.5h-18.5v-15h38.5c4.136 0 7.5 3.364 7.5 7.5zm62.556 286.45-35.355-35.355 9.899-9.899 35.355 35.355zm-50.912 50.912-35.355-35.355 40.305-40.305 35.355 35.356zm-53.927 9.713 8.859 8.859-13.698 4.838zm24.535 3.321-18.998-18.998 5.537-15.675 29.136 29.136zm-92.252-370.396c0-1.379 1.122-2.5 2.5-2.5h44c1.378 0 2.5 1.121 2.5 2.5v70c0 1.379-1.122 2.5-2.5 2.5h-44c-1.378 0-2.5-1.121-2.5-2.5zm-61 27.5v-7.5c0-4.136 3.364-7.5 7.5-7.5h38.5v15zm-42 422v-15h255v15zm255-30h-255v-347h88.2c1.22 8.466 8.502 15 17.3 15h44c8.798 0 16.081-6.534 17.3-15h88.2v162c0 .187.015.37.028.554l-81.65 81.649c-.785.784-1.398 1.76-1.769 2.806l-21.618 61.199c-1.619 4.583-.49 9.564 2.947 13.002 4.046 3.541 8.38 4.523 13.003 2.948l61.2-21.618c1.046-.369 2.021-.983 2.805-1.768l25.053-25.053v71.281zm127.329-219.823-86.267 86.267-35.355-35.355s86.267-86.267 86.267-86.267c3.466-2.809 6.884-2.691 10.252.354l24.749 24.749c3.045 3.368 3.163 6.786.354 10.252zm17.678-38.891-12.728 12.728-14.142-14.142 12.728-12.728c1.088-.854 2.149-.737 3.182.354l10.607 10.606c.18.181 1.727 1.808.353 3.182z"/><path d="m123.164 362c-12.407 0-22.5 10.094-22.5 22.5s10.093 22.5 22.5 22.5 22.5-10.094 22.5-22.5-10.093-22.5-22.5-22.5zm0 30c-4.136 0-7.5-3.364-7.5-7.5s3.364-7.5 7.5-7.5 7.5 3.364 7.5 7.5-3.364 7.5-7.5 7.5z"/><path d="m197.664 392h-29.5c-4.142 0-7.5 3.357-7.5 7.5s3.358 7.5 7.5 7.5h29.5c4.142 0 7.5-3.357 7.5-7.5s-3.358-7.5-7.5-7.5z"/><path d="m197.664 362h-29.5c-4.142 0-7.5 3.357-7.5 7.5s3.358 7.5 7.5 7.5h29.5c4.142 0 7.5-3.357 7.5-7.5s-3.358-7.5-7.5-7.5z"/><path d="m123.164 287c-12.407 0-22.5 10.094-22.5 22.5s10.093 22.5 22.5 22.5 22.5-10.094 22.5-22.5-10.093-22.5-22.5-22.5zm0 30c-4.136 0-7.5-3.364-7.5-7.5s3.364-7.5 7.5-7.5 7.5 3.364 7.5 7.5-3.364 7.5-7.5 7.5z"/><path d="m197.664 317h-29.5c-4.142 0-7.5 3.357-7.5 7.5s3.358 7.5 7.5 7.5h29.5c4.142 0 7.5-3.357 7.5-7.5s-3.358-7.5-7.5-7.5z"/><path d="m168.164 302h69.5c4.142 0 7.5-3.357 7.5-7.5s-3.358-7.5-7.5-7.5h-69.5c-4.142 0-7.5 3.357-7.5 7.5s3.358 7.5 7.5 7.5z"/></g></svg>