<svg height="512" viewBox="0 0 64 64" width="512" xmlns="http://www.w3.org/2000/svg"><g id="Real_Estate-Investment-Loan-Finance-Building" data-name="Real Estate-Investment-Loan-Finance-Building"><path d="m48 38h-32a2.006 2.006 0 0 0 -2 2v20a2.006 2.006 0 0 0 2 2h32a2.006 2.006 0 0 0 2-2v-20a2.006 2.006 0 0 0 -2-2zm-32 2h2.86a4.017 4.017 0 0 1 -2.86 2.86zm0 11.13a4.013 4.013 0 0 1 2.86 2.87h-2.86zm12 8.87h-12v-1h12zm0-3h-12v-1h12zm6 3h-4v-4h4zm14 0h-12v-1h12zm0-3h-12v-1h12zm0-3h-2.86a4.017 4.017 0 0 1 2.86-2.86zm0-4.91a5.992 5.992 0 0 0 -4.91 4.91h-22.18a5.992 5.992 0 0 0 -4.91-4.91v-4.18a5.992 5.992 0 0 0 4.91-4.91h22.18a5.992 5.992 0 0 0 4.91 4.91zm0-6.23a4.017 4.017 0 0 1 -2.86-2.86h2.86z"/><path d="m32 42a5 5 0 1 0 5 5 5.006 5.006 0 0 0 -5-5zm0 8a3 3 0 1 1 3-3 3 3 0 0 1 -3 3z"/><path d="m53 32v-16h1a1 1 0 0 0 1-1v-4a1 1 0 0 0 -1-1h-11v-2h1a1 1 0 0 0 1-1v-4a1 1 0 0 0 -1-1h-24a1 1 0 0 0 -1 1v4a1 1 0 0 0 1 1h1v2h-11a1 1 0 0 0 -1 1v4a1 1 0 0 0 1 1h1v16h-5v2h52v-2zm-32 0h-8v-16h8zm0-18h-10v-2h10zm0-10h22v2h-22zm13 28h-4v-4h4zm7 0h-5v-4h1v-2h-10v2h1v4h-5v-24h18zm10 0h-8v-16h8zm-8-18v-2h10v2z"/><path d="m25 10h2v2h-2z"/><path d="m29 10h2v2h-2z"/><path d="m33 10h2v2h-2z"/><path d="m37 10h2v2h-2z"/><path d="m25 14h2v2h-2z"/><path d="m29 14h2v2h-2z"/><path d="m33 14h2v2h-2z"/><path d="m37 14h2v2h-2z"/><path d="m25 18h2v2h-2z"/><path d="m29 18h2v2h-2z"/><path d="m33 18h2v2h-2z"/><path d="m37 18h2v2h-2z"/><path d="m25 22h2v2h-2z"/><path d="m29 22h2v2h-2z"/><path d="m33 22h2v2h-2z"/><path d="m37 22h2v2h-2z"/><path d="m45 18h4v2h-4z"/><path d="m45 22h4v2h-4z"/><path d="m45 26h4v2h-4z"/><path d="m15 18h4v2h-4z"/><path d="m15 22h4v2h-4z"/><path d="m15 26h4v2h-4z"/><path d="m60 32h2v2h-2z"/><path d="m2 32h2v2h-2z"/><path d="m56 36h2v2h-2z"/><path d="m56 40h2v2h-2z"/><path d="m56 44h2v2h-2z"/><path d="m56 48h2v2h-2z"/><path d="m52 48h2v2h-2z"/><path d="m6 36h2v2h-2z"/><path d="m6 40h2v2h-2z"/><path d="m6 44h2v2h-2z"/><path d="m6 48h2v2h-2z"/><path d="m10 48h2v2h-2z"/></g></svg>